<?xml version="1.0" encoding="utf-8"?>
<!-- Generator: Adobe Illustrator 14.0.0, SVG Export Plug-In . SVG Version: 6.00 Build 43363)  -->
<!DOCTYPE svg PUBLIC "-//W3C//DTD SVG 1.1//EN" "http://www.w3.org/Graphics/SVG/1.1/DTD/svg11.dtd">
<svg version="1.1" id="Capa_1" xmlns="http://www.w3.org/2000/svg" xmlns:xlink="http://www.w3.org/1999/xlink" x="0px" y="0px"
	 width="700.236px" height="700.236px" viewBox="0 0 700.236 700.236" enable-background="new 0 0 700.236 700.236"
	 xml:space="preserve">
<g>
	<path fill="#00ABDF" stroke="#61CBE6" d="M645.527,495.815l-75.609-43.688l63.832-38.016c10.262-4.943,13.438-18.724,7.602-28.854
		c-5.94-10.375-18.764-12.563-28.498-6.891l-85.106,49.85L392.488,349.51l135.258-77.895l85.106,49.769
		c2.658,1.944,6.078,3.08,9.882,3.08c7.213,0,13.674-3.404,18.616-9.89c5.699-10.294,2.66-23.911-7.602-28.854l-63.832-38.016
		l75.609-43.688c9.854-5.674,13.243-18.4,7.602-28.856c-5.389-10.051-18.723-13.536-28.879-7.619l-75.99,44.095l-1.135-76.03
		c-0.178-11.753-9.119-21.237-20.896-21.237c-11.774,0-20.983,10.213-20.895,21.237l0.754,100.346l-134.496,77.895V155.788
		l84.728-48.309c9.891-5.593,14.2-18.644,8.356-28.855c-5.934-10.375-18.115-13.456-28.498-7.619l-64.586,36.476V21.236
		c0-11.753-9.5-21.236-21.276-21.236c-11.777,0-20.896,9.483-20.896,21.236v87.053l-66.871-37.285
		c-10.416-5.755-22.273-2.513-28.118,7.619c-5.933,10.375-2.244,23.102,7.977,28.855l87.013,49.039v156.518l-137.542-79.353
		l0.763-98.077c1.143-11.023-8.738-21.237-20.516-21.237h-0.762c-11.017,0-20.774,9.484-20.896,21.237l-0.762,73.76l-74.084-42.554
		c-10.343-5.998-23.109-2.433-28.499,7.538c-5.642,10.537-2.724,22.938,7.604,28.937l74.846,43.283l-65.354,39.15
		C53.96,290.664,50.758,304.443,57,314.575c4.021,6.566,9.873,9.89,17.856,9.89c4.174,0,7.65-1.055,11.015-3.08l85.489-50.498
		l137.162,78.624L171.36,428.944l-85.489-50.578c-10.262-5.998-23.49-3.161-28.872,6.891c-5.642,10.456-2.578,23.02,7.214,28.854
		l65.355,38.744l-74.847,43.689c-10.303,5.998-13.643,18.643-7.604,28.937C51.342,532.614,57,536.1,64.976,536.1
		c1.896,0,5.697-1.135,10.643-3.08l74.084-42.554l0.762,73.76c0.122,11.753,9.881,20.831,20.896,20.831h0.762
		c11.777,0,20.604-9.809,20.516-21.643l-0.763-97.996l137.542-78.623v155.707l-87.013,49.038
		c-10.383,5.837-14.015,18.562-7.976,28.856c4.223,7.214,9.881,10.699,17.855,10.699c3.802,0,7.303-0.648,10.262-2.352
		l66.871-37.935v88.513c0,11.753,9.119,20.912,20.896,20.912c11.776,0,21.276-9.159,21.276-20.912v-87.054l64.586,36.476
		c2.957,1.702,6.459,2.352,9.881,2.352c8.355,0,14.517-3.404,18.617-10.699c5.771-10.213,2.043-23.021-8.356-28.856l-84.728-47.497
		V385.985l134.496,77.895l-0.754,99.535c-0.098,11.834,9.119,21.643,20.896,21.643c11.776,0,20.717-9.078,20.895-20.831
		l1.135-76.435l75.99,44.498c2.935,1.702,6.84,2.271,11.023,2.271c7.977,0,13.827-3.323,17.854-9.889
		C659.363,514.539,655.382,501.489,645.527,495.815z"/>
</g>
</svg>
